{
  "accessors": [
    {
      "bufferView": 2,
      "componentType": 5126,
      "count": 5735,
      "max": [
        3.4667015075683594,
        4.580861568450928,
        2.036317825317383
      ],
      "min": [
        -3.249094009399414,
        -4.10251522064209,
        -0.16168707609176636
      ],
      "type": "VEC3"
    },
    {
      "bufferView": 2,
      "byteOffset": 68820,
      "componentType": 5126,
      "count": 5735,
      "max": [
        0.9999305009841919,
        0.9996978044509888,
        0.9998259544372559
      ],
      "min": [
        -0.9999305009841919,
        -0.9999622106552124,
        -1.0
      ],
      "type": "VEC3"
    },
    {
      "bufferView": 1,
      "componentType": 5126,
      "count": 5735,
      "max": [
        0.9853601455688477,
        0.986617386341095
      ],
      "min": [
        0.013382554054260254,
        0.013382434844970703
      ],
      "type": "VEC2"
    },
    {
      "bufferView": 0,
      "componentType": 5125,
      "count": 19296,
      "type": "SCALAR"
    }
  ],
  "asset": {
    "extras": {
      "author": "UlissesVinicios (https://sketchfab.com/UlissesVinicios)",
      "license": "CC-BY-4.0 (http://creativecommons.org/licenses/by/4.0/)",
      "source": "https://sketchfab.com/3d-models/spider-basemesh-a624ff05982f47e89b16516ab591c46f",
      "title": "Spider basemesh"
    },
    "generator": "Sketchfab-12.74.0",
    "version": "2.0"
  },
  "bufferViews": [
    {
      "buffer": 0,
      "byteLength": 77184,
      "name": "floatBufferViews",
      "target": 34963
    },
    {
      "buffer": 0,
      "byteLength": 45880,
      "byteOffset": 77184,
      "byteStride": 8,
      "name": "floatBufferViews",
      "target": 34962
    },
    {
      "buffer": 0,
      "byteLength": 137640,
      "byteOffset": 123064,
      "byteStride": 12,
      "name": "floatBufferViews",
      "target": 34962
    }
  ],
  "buffers": [
    {
      "byteLength": 260704,
      "uri": "scene.bin"
    }
  ],
  "images": [
    {
      "uri": "textures/spider_baseColor.png"
    }
  ],
  "materials": [
    {
      "doubleSided": true,
      "name": "spider",
      "pbrMetallicRoughness": {
        "baseColorTexture": {
          "index": 0
        },
        "metallicFactor": 0.0,
        "roughnessFactor": 0.8040408205773457
      }
    }
  ],
  "meshes": [
    {
      "name": "Tronco_spider_0",
      "primitives": [
        {
          "attributes": {
            "NORMAL": 1,
            "POSITION": 0,
            "TEXCOORD_0": 2
          },
          "indices": 3,
          "material": 0,
          "mode": 4
        }
      ]
    }
  ],
  "nodes": [
    {
      "children": [
        1
      ],
      "matrix": [
        1.0,
        0.0,
        0.0,
        0.0,
        0.0,
        2.220446049250313e-16,
        -1.0,
        0.0,
        0.0,
        1.0,
        2.220446049250313e-16,
        0.0,
        0.0,
        0.0,
        0.0,
        1.0
      ],
      "name": "Sketchfab_model"
    },
    {
      "children": [
        2
      ],
      "matrix": [
        0.009999999776482582,
        0.0,
        0.0,
        0.0,
        0.0,
        0.0,
        0.009999999776482582,
        0.0,
        0.0,
        -0.009999999776482582,
        0.0,
        0.0,
        0.0,
        0.0,
        0.0,
        1.0
      ],
      "name": "7a06f86ef33d4b50888c2b02327b68a1.fbx"
    },
    {
      "children": [
        3
      ],
      "name": "RootNode"
    },
    {
      "children": [
        4
      ],
      "matrix": [
        100.0,
        0.0,
        0.0,
        0.0,
        -0.0,
        -1.629206793918314e-05,
        -99.99999999999868,
        0.0,
        0.0,
        99.99999999999868,
        -1.629206793918314e-05,
        0.0,
        -10.880376815795898,
        0.0,
        0.0,
        1.0
      ],
      "name": "Tronco"
    },
    {
      "mesh": 0,
      "name": "Tronco_spider_0"
    }
  ],
  "samplers": [
    {
      "magFilter": 9729,
      "minFilter": 9987,
      "wrapS": 10497,
      "wrapT": 10497
    }
  ],
  "scene": 0,
  "scenes": [
    {
      "name": "Sketchfab_Scene",
      "nodes": [
        0
      ]
    }
  ],
  "textures": [
    {
      "sampler": 0,
      "source": 0
    }
  ]
}
